<svg width="14" height="14" viewBox="0 0 14 14" fill="none" xmlns="http://www.w3.org/2000/svg">
<path d="M13 7.998H8V12.998C8 13.2632 7.89464 13.5176 7.70711 13.7051C7.51957 13.8926 7.26522 13.998 7 13.998C6.73478 13.998 6.48043 13.8926 6.29289 13.7051C6.10536 13.5176 6 13.2632 6 12.998V7.998H1C0.734784 7.998 0.48043 7.89264 0.292893 7.70511C0.105357 7.51757 0 7.26322 0 6.998C0 6.73278 0.105357 6.47843 0.292893 6.29089C0.48043 6.10336 0.734784 5.998 1 5.998H6V0.998001C6 0.732785 6.10536 0.47843 6.29289 0.290894C6.48043 0.103358 6.73478 -0.0019989 7 -0.0019989C7.26522 -0.0019989 7.51957 0.103358 7.70711 0.290894C7.89464 0.47843 8 0.732785 8 0.998001V5.998H13C13.2652 5.998 13.5196 6.10336 13.7071 6.29089C13.8946 6.47843 14 6.73278 14 6.998C14 7.26322 13.8946 7.51757 13.7071 7.70511C13.5196 7.89264 13.2652 7.998 13 7.998Z" fill="black"/>
</svg>
